####
#
# OBJ File Generated by Meshlab
#
####
# Object icosphere_80.obj
#
# Vertices: 42
# Faces: 80
#
####
vn 0.000000 1.000000 0.000000
v 0.000000 1.000000 0.000000
vn 0.500000 0.809017 0.309017
v 0.500000 0.809017 0.309017
vn 0.500000 0.809017 -0.309017
v 0.500000 0.809017 -0.309017
vn 0.000000 0.850651 -0.525731
v 0.000000 0.850651 -0.525731
vn 0.000000 0.850651 0.525731
v 0.000000 0.850651 0.525731
vn 0.850651 0.525731 0.000000
v 0.850651 0.525731 0.000000
vn -0.500000 0.809017 -0.309017
v -0.500000 0.809017 -0.309017
vn -0.500000 0.809017 0.309017
v -0.500000 0.809017 0.309017
vn -0.850651 0.525731 0.000000
v -0.850651 0.525731 0.000000
vn 0.000000 -1.000000 0.000000
v 0.000000 -1.000000 0.000000
vn 0.500000 -0.809017 -0.309017
v 0.500000 -0.809017 -0.309017
vn 0.500000 -0.809017 0.309017
v 0.500000 -0.809017 0.309017
vn 0.000000 -0.850651 0.525731
v 0.000000 -0.850651 0.525731
vn 0.000000 -0.850651 -0.525731
v 0.000000 -0.850651 -0.525731
vn 0.850651 -0.525731 0.000000
v 0.850651 -0.525731 0.000000
vn -0.500000 -0.809017 0.309017
v -0.500000 -0.809017 0.309017
vn -0.500000 -0.809017 -0.309017
v -0.500000 -0.809017 -0.309017
vn -0.850651 -0.525731 0.000000
v -0.850651 -0.525731 0.000000
vn 1.000000 0.000000 -0.000000
v 1.000000 0.000000 0.000000
vn 0.809017 -0.309017 -0.500000
v 0.809017 -0.309017 -0.500000
vn 0.809017 0.309017 -0.500000
v 0.809017 0.309017 -0.500000
vn 0.525731 0.000000 -0.850651
v 0.525731 0.000000 -0.850651
vn 0.809017 0.309017 0.500000
v 0.809017 0.309017 0.500000
vn 0.809017 -0.309017 0.500000
v 0.809017 -0.309017 0.500000
vn 0.525731 0.000000 0.850651
v 0.525731 0.000000 0.850651
vn -1.000000 0.000000 0.000000
v -1.000000 0.000000 0.000000
vn -0.809017 -0.309017 0.500000
v -0.809017 -0.309017 0.500000
vn -0.809017 0.309017 0.500000
v -0.809017 0.309017 0.500000
vn -0.525731 0.000000 0.850651
v -0.525731 0.000000 0.850651
vn -0.809017 0.309017 -0.500000
v -0.809017 0.309017 -0.500000
vn -0.809017 -0.309017 -0.500000
v -0.809017 -0.309017 -0.500000
vn -0.525731 0.000000 -0.850651
v -0.525731 0.000000 -0.850651
vn 0.000000 -0.000000 1.000000
v 0.000000 0.000000 1.000000
vn -0.309017 -0.500000 0.809017
v -0.309017 -0.500000 0.809017
vn 0.309017 -0.500000 0.809017
v 0.309017 -0.500000 0.809017
vn 0.309017 0.500000 0.809017
v 0.309017 0.500000 0.809017
vn -0.309017 0.500000 0.809017
v -0.309017 0.500000 0.809017
vn 0.000000 0.000000 -1.000000
v 0.000000 0.000000 -1.000000
vn -0.309017 0.500000 -0.809017
v -0.309017 0.500000 -0.809017
vn 0.309017 0.500000 -0.809017
v 0.309017 0.500000 -0.809017
vn 0.309017 -0.500000 -0.809017
v 0.309017 -0.500000 -0.809017
vn -0.309017 -0.500000 -0.809017
v -0.309017 -0.500000 -0.809017
# 42 vertices, 0 vertices normals

f 1//1 2//2 3//3
f 4//4 1//1 3//3
f 5//5 2//2 1//1
f 6//6 3//3 2//2
f 1//1 7//7 8//8
f 5//5 1//1 8//8
f 4//4 7//7 1//1
f 9//9 8//8 7//7
f 10//10 11//11 12//12
f 13//13 10//10 12//12
f 14//14 11//11 10//10
f 15//15 12//12 11//11
f 10//10 16//16 17//17
f 14//14 10//10 17//17
f 13//13 16//16 10//10
f 18//18 17//17 16//16
f 19//19 20//20 21//21
f 6//6 19//19 21//21
f 15//15 20//20 19//19
f 22//22 21//21 20//20
f 19//19 23//23 24//24
f 15//15 19//19 24//24
f 6//6 23//23 19//19
f 25//25 24//24 23//23
f 26//26 27//27 28//28
f 9//9 26//26 28//28
f 18//18 27//27 26//26
f 29//29 28//28 27//27
f 26//26 30//30 31//31
f 18//18 26//26 31//31
f 9//9 30//30 26//26
f 32//32 31//31 30//30
f 33//33 34//34 35//35
f 25//25 33//33 35//35
f 29//29 34//34 33//33
f 13//13 35//35 34//34
f 33//33 36//36 37//37
f 29//29 33//33 37//37
f 25//25 36//36 33//33
f 5//5 37//37 36//36
f 38//38 39//39 40//40
f 22//22 38//38 40//40
f 32//32 39//39 38//38
f 4//4 40//40 39//39
f 38//38 41//41 42//42
f 32//32 38//38 42//42
f 22//22 41//41 38//38
f 14//14 42//42 41//41
f 36//36 23//23 2//2
f 5//5 36//36 2//2
f 25//25 23//23 36//36
f 6//6 2//2 23//23
f 8//8 28//28 37//37
f 5//5 8//8 37//37
f 9//9 28//28 8//8
f 29//29 37//37 28//28
f 3//3 21//21 40//40
f 4//4 3//3 40//40
f 6//6 21//21 3//3
f 22//22 40//40 21//21
f 39//39 30//30 7//7
f 4//4 39//39 7//7
f 32//32 30//30 39//39
f 9//9 7//7 30//30
f 12//12 24//24 35//35
f 13//13 12//12 35//35
f 15//15 24//24 12//12
f 25//25 35//35 24//24
f 34//34 27//27 16//16
f 13//13 34//34 16//16
f 29//29 27//27 34//34
f 18//18 16//16 27//27
f 41//41 20//20 11//11
f 14//14 41//41 11//11
f 22//22 20//20 41//41
f 15//15 11//11 20//20
f 17//17 31//31 42//42
f 14//14 17//17 42//42
f 18//18 31//31 17//17
f 32//32 42//42 31//31
# 80 faces, 0 coords texture

# End of File
