v 1 1 1
v 1 1 -1
v 1 -1 1
v 1 -1 -1
v -1 1 -1
v -1 1 1
v -1 -1 -1
v -1 -1 1
vn 0.4082482904638631 0.4082482904638631 0.8164965809277261
vn 0.6666666666666666 0.6666666666666666 -0.3333333333333333
vn 0.6666666666666666 -0.6666666666666666 0.3333333333333333
vn 0.4082482904638631 -0.4082482904638631 -0.8164965809277261
vn -0.4082482904638631 0.4082482904638631 -0.8164965809277261
vn -0.6666666666666666 0.6666666666666666 0.3333333333333333
vn -0.6666666666666666 -0.6666666666666666 -0.3333333333333333
vn -0.4082482904638631 -0.4082482904638631 0.8164965809277261
f 1//1 3//3 2//2
f 3//3 4//4 2//2
f 5//5 7//7 6//6
f 7//7 8//8 6//6
f 5//5 6//6 2//2
f 6//6 1//1 2//2
f 8//8 7//7 3//3
f 7//7 4//4 3//3
f 6//6 8//8 1//1
f 8//8 3//3 1//1
f 2//2 4//4 5//5
f 4//4 7//7 5//5
