v 0 1 0
v 0 -1 1
v 0.19509032368659973 -1 0.9807852506637573
v 0.3826834261417389 -1 0.9238795042037964
v 0.5555702447891235 -1 0.8314695954322815
v 0.7071067690849304 -1 0.7071067690849304
v 0.8314695954322815 -1 0.5555702447891235
v 0.9238795042037964 -1 0.3826834261417389
v 0.9807852506637573 -1 0.19509032368659973
v 1 -1 6.123234262925839e-17
v 0.9807852506637573 -1 -0.19509032368659973
v 0.9238795042037964 -1 -0.3826834261417389
v 0.8314695954322815 -1 -0.5555702447891235
v 0.7071067690849304 -1 -0.7071067690849304
v 0.5555702447891235 -1 -0.8314695954322815
v 0.3826834261417389 -1 -0.9238795042037964
v 0.19509032368659973 -1 -0.9807852506637573
v 1.2246468525851679e-16 -1 -1
v -0.19509032368659973 -1 -0.9807852506637573
v -0.3826834261417389 -1 -0.9238795042037964
v -0.5555702447891235 -1 -0.8314695954322815
v -0.7071067690849304 -1 -0.7071067690849304
v -0.8314695954322815 -1 -0.5555702447891235
v -0.9238795042037964 -1 -0.3826834261417389
v -0.9807852506637573 -1 -0.19509032368659973
v -1 -1 -1.8369701465288538e-16
v -0.9807852506637573 -1 0.19509032368659973
v -0.9238795042037964 -1 0.3826834261417389
v -0.8314695954322815 -1 0.5555702447891235
v -0.7071067690849304 -1 0.7071067690849304
v -0.5555702447891235 -1 0.8314695954322815
v -0.3826834261417389 -1 0.9238795042037964
v -0.19509032368659973 -1 0.9807852506637573
v 0 -1 0
vn 1.3628936335908274e-17 1 -6.230370896415211e-17
vn 0 -0.5283885594884175 0.8490026679591502
vn 0.16563226933614494 -0.5283885522979193 0.8326893113010806
vn 0.3248992211083854 -0.5283885534933923 0.7843762060773676
vn 0.47168059815797375 -0.5283885567705172 0.7059199291671161
vn 0.6003355474588513 -0.528388551082026 0.6003355474588513
vn 0.7059199291671161 -0.5283885567705172 0.47168059815797375
vn 0.7843762060773675 -0.5283885534933923 0.32489922110838537
vn 0.8326893113010806 -0.5283885522979193 0.16563226933614497
vn 0.8490026679591502 -0.5283885594884175 1.9836005618639584e-17
vn 0.8326893113010806 -0.5283885522979193 -0.16563226933614494
vn 0.7843762060773675 -0.5283885534933923 -0.32489922110838537
vn 0.7059199291671161 -0.5283885567705172 -0.47168059815797375
vn 0.6003355474588513 -0.528388551082026 -0.6003355474588513
vn 0.47168059815797375 -0.5283885567705172 -0.7059199291671161
vn 0.3248992211083854 -0.5283885534933923 -0.7843762060773676
vn 0.16563226933614497 -0.5283885522979193 -0.8326893113010806
vn 3.967201123727917e-17 -0.5283885594884173 -0.8490026679591502
vn -0.16563226933614494 -0.5283885522979193 -0.8326893113010806
vn -0.3248992211083854 -0.5283885534933923 -0.7843762060773676
vn -0.47168059815797375 -0.5283885567705172 -0.7059199291671161
vn -0.6003355474588513 -0.528388551082026 -0.6003355474588513
vn -0.7059199291671161 -0.5283885567705172 -0.47168059815797375
vn -0.7843762060773675 -0.5283885534933923 -0.32489922110838537
vn -0.8326893113010806 -0.5283885522979193 -0.165632269336145
vn -0.8490026679591502 -0.5283885594884173 -8.595602434743821e-17
vn -0.8326893113010806 -0.5283885522979193 0.16563226933614492
vn -0.7843762060773675 -0.5283885534933923 0.32489922110838537
vn -0.7059199291671161 -0.5283885567705172 0.47168059815797375
vn -0.6003355474588513 -0.528388551082026 0.6003355474588513
vn -0.47168059815797375 -0.5283885567705172 0.7059199291671161
vn -0.3248992211083854 -0.5283885534933923 0.7843762060773676
vn -0.16563226933614494 -0.5283885522979193 0.8326893113010806
vn 0 -1 0
f 2//2 3//3 1//1
f 3//3 4//4 1//1
f 4//4 5//5 1//1
f 5//5 6//6 1//1
f 6//6 7//7 1//1
f 7//7 8//8 1//1
f 8//8 9//9 1//1
f 9//9 10//10 1//1
f 10//10 11//11 1//1
f 11//11 12//12 1//1
f 12//12 13//13 1//1
f 13//13 14//14 1//1
f 14//14 15//15 1//1
f 15//15 16//16 1//1
f 16//16 17//17 1//1
f 17//17 18//18 1//1
f 18//18 19//19 1//1
f 19//19 20//20 1//1
f 20//20 21//21 1//1
f 21//21 22//22 1//1
f 22//22 23//23 1//1
f 23//23 24//24 1//1
f 24//24 25//25 1//1
f 25//25 26//26 1//1
f 26//26 27//27 1//1
f 27//27 28//28 1//1
f 28//28 29//29 1//1
f 29//29 30//30 1//1
f 30//30 31//31 1//1
f 31//31 32//32 1//1
f 32//32 33//33 1//1
f 33//33 2//2 1//1
f 3//3 2//2 34//34
f 4//4 3//3 34//34
f 5//5 4//4 34//34
f 6//6 5//5 34//34
f 7//7 6//6 34//34
f 8//8 7//7 34//34
f 9//9 8//8 34//34
f 10//10 9//9 34//34
f 11//11 10//10 34//34
f 12//12 11//11 34//34
f 13//13 12//12 34//34
f 14//14 13//13 34//34
f 15//15 14//14 34//34
f 16//16 15//15 34//34
f 17//17 16//16 34//34
f 18//18 17//17 34//34
f 19//19 18//18 34//34
f 20//20 19//19 34//34
f 21//21 20//20 34//34
f 22//22 21//21 34//34
f 23//23 22//22 34//34
f 24//24 23//23 34//34
f 25//25 24//24 34//34
f 26//26 25//25 34//34
f 27//27 26//26 34//34
f 28//28 27//27 34//34
f 29//29 28//28 34//34
f 30//30 29//29 34//34
f 31//31 30//30 34//34
f 32//32 31//31 34//34
f 33//33 32//32 34//34
f 2//2 33//33 34//34
