v 0 1 1
v 0.19509032368659973 1 0.9807852506637573
v 0.3826834261417389 1 0.9238795042037964
v 0.5555702447891235 1 0.8314695954322815
v 0.7071067690849304 1 0.7071067690849304
v 0.8314695954322815 1 0.5555702447891235
v 0.9238795042037964 1 0.3826834261417389
v 0.9807852506637573 1 0.19509032368659973
v 1 1 6.123234262925839e-17
v 0.9807852506637573 1 -0.19509032368659973
v 0.9238795042037964 1 -0.3826834261417389
v 0.8314695954322815 1 -0.5555702447891235
v 0.7071067690849304 1 -0.7071067690849304
v 0.5555702447891235 1 -0.8314695954322815
v 0.3826834261417389 1 -0.9238795042037964
v 0.19509032368659973 1 -0.9807852506637573
v 1.2246468525851679e-16 1 -1
v -0.19509032368659973 1 -0.9807852506637573
v -0.3826834261417389 1 -0.9238795042037964
v -0.5555702447891235 1 -0.8314695954322815
v -0.7071067690849304 1 -0.7071067690849304
v -0.8314695954322815 1 -0.5555702447891235
v -0.9238795042037964 1 -0.3826834261417389
v -0.9807852506637573 1 -0.19509032368659973
v -1 1 -1.8369701465288538e-16
v -0.9807852506637573 1 0.19509032368659973
v -0.9238795042037964 1 0.3826834261417389
v -0.8314695954322815 1 0.5555702447891235
v -0.7071067690849304 1 0.7071067690849304
v -0.5555702447891235 1 0.8314695954322815
v -0.3826834261417389 1 0.9238795042037964
v -0.19509032368659973 1 0.9807852506637573
v 0 -1 1
v 0.19509032368659973 -1 0.9807852506637573
v 0.3826834261417389 -1 0.9238795042037964
v 0.5555702447891235 -1 0.8314695954322815
v 0.7071067690849304 -1 0.7071067690849304
v 0.8314695954322815 -1 0.5555702447891235
v 0.9238795042037964 -1 0.3826834261417389
v 0.9807852506637573 -1 0.19509032368659973
v 1 -1 6.123234262925839e-17
v 0.9807852506637573 -1 -0.19509032368659973
v 0.9238795042037964 -1 -0.3826834261417389
v 0.8314695954322815 -1 -0.5555702447891235
v 0.7071067690849304 -1 -0.7071067690849304
v 0.5555702447891235 -1 -0.8314695954322815
v 0.3826834261417389 -1 -0.9238795042037964
v 0.19509032368659973 -1 -0.9807852506637573
v 1.2246468525851679e-16 -1 -1
v -0.19509032368659973 -1 -0.9807852506637573
v -0.3826834261417389 -1 -0.9238795042037964
v -0.5555702447891235 -1 -0.8314695954322815
v -0.7071067690849304 -1 -0.7071067690849304
v -0.8314695954322815 -1 -0.5555702447891235
v -0.9238795042037964 -1 -0.3826834261417389
v -0.9807852506637573 -1 -0.19509032368659973
v -1 -1 -1.8369701465288538e-16
v -0.9807852506637573 -1 0.19509032368659973
v -0.9238795042037964 -1 0.3826834261417389
v -0.8314695954322815 -1 0.5555702447891235
v -0.7071067690849304 -1 0.7071067690849304
v -0.5555702447891235 -1 0.8314695954322815
v -0.3826834261417389 -1 0.9238795042037964
v -0.19509032368659973 -1 0.9807852506637573
v 0 1 0
v 0 -1 0
vn -0.027265825458837177 0.5563472634145011 0.8305024366329359
vn 0.13528119324879617 0.556347255927529 0.8198638481937659
vn 0.29262920379214297 0.5563472567005695 0.7777183802956744
vn 0.4387317324460656 0.5563472609433835 0.705685618519797
vn 0.567974100400124 0.5563472564070674 0.6065337184056616
vn 0.6753894800954627 0.5563472609433836 0.48407310957868255
vn 0.7568500658135318 0.5563472567005695 0.3430097780527596
vn 0.8092252709309762 0.556347255927529 0.1887649112218599
vn 0.8305024366329359 0.5563472634145011 0.02726582545883721
vn 0.8198638481937658 0.556347255927529 -0.13528119324879617
vn 0.7777183802956744 0.5563472567005695 -0.29262920379214297
vn 0.705685618519797 0.5563472609433835 -0.4387317324460656
vn 0.6065337184056616 0.5563472564070674 -0.567974100400124
vn 0.48407310957868255 0.5563472609433836 -0.6753894800954627
vn 0.3430097780527596 0.5563472567005695 -0.7568500658135318
vn 0.18876491122185993 0.5563472559275291 -0.8092252709309763
vn 0.02726582545883723 0.5563472634145012 -0.830502436632936
vn -0.13528119324879614 0.556347255927529 -0.8198638481937659
vn -0.29262920379214297 0.5563472567005695 -0.7777183802956744
vn -0.4387317324460656 0.5563472609433835 -0.705685618519797
vn -0.567974100400124 0.5563472564070674 -0.6065337184056616
vn -0.6753894800954627 0.5563472609433836 -0.48407310957868255
vn -0.7568500658135318 0.5563472567005695 -0.3430097780527596
vn -0.8092252709309762 0.556347255927529 -0.18876491122185993
vn -0.8305024366329359 0.5563472634145011 -0.027265825458837267
vn -0.8198638481937658 0.556347255927529 0.13528119324879612
vn -0.7777183802956744 0.5563472567005695 0.29262920379214297
vn -0.705685618519797 0.5563472609433835 0.4387317324460656
vn -0.6065337184056616 0.5563472564070674 0.567974100400124
vn -0.48407310957868255 0.5563472609433836 0.6753894800954627
vn -0.3430097780527596 0.5563472567005695 0.7568500658135318
vn -0.18876491122185993 0.5563472559275291 0.8092252709309763
vn 0.027265825458837177 -0.5563472634145011 0.8305024366329359
vn 0.1887649112218599 -0.556347255927529 0.8092252709309763
vn 0.3430097780527596 -0.5563472567005695 0.7568500658135318
vn 0.48407310957868255 -0.5563472609433836 0.6753894800954627
vn 0.6065337184056616 -0.5563472564070674 0.567974100400124
vn 0.705685618519797 -0.5563472609433836 0.43873173244606567
vn 0.7777183802956744 -0.5563472567005695 0.29262920379214297
vn 0.8198638481937659 -0.556347255927529 0.1352811932487962
vn 0.8305024366329359 -0.5563472634145011 -0.02726582545883715
vn 0.8092252709309762 -0.556347255927529 -0.1887649112218599
vn 0.7568500658135318 -0.5563472567005695 -0.3430097780527596
vn 0.6753894800954627 -0.5563472609433836 -0.48407310957868255
vn 0.567974100400124 -0.5563472564070674 -0.6065337184056616
vn 0.43873173244606567 -0.5563472609433836 -0.705685618519797
vn 0.29262920379214297 -0.5563472567005695 -0.7777183802956744
vn 0.13528119324879623 -0.5563472559275291 -0.819863848193766
vn -0.027265825458837132 -0.5563472634145011 -0.8305024366329359
vn -0.18876491122185987 -0.556347255927529 -0.8092252709309763
vn -0.3430097780527596 -0.5563472567005695 -0.7568500658135318
vn -0.48407310957868255 -0.5563472609433836 -0.6753894800954627
vn -0.6065337184056616 -0.5563472564070674 -0.567974100400124
vn -0.705685618519797 -0.5563472609433836 -0.43873173244606567
vn -0.7777183802956744 -0.5563472567005695 -0.29262920379214297
vn -0.8198638481937659 -0.556347255927529 -0.13528119324879623
vn -0.8305024366329359 -0.5563472634145011 0.027265825458837094
vn -0.8092252709309762 -0.556347255927529 0.18876491122185987
vn -0.7568500658135318 -0.5563472567005695 0.3430097780527596
vn -0.6753894800954627 -0.5563472609433836 0.48407310957868255
vn -0.567974100400124 -0.5563472564070674 0.6065337184056616
vn -0.43873173244606567 -0.5563472609433836 0.705685618519797
vn -0.29262920379214297 -0.5563472567005695 0.7777183802956744
vn -0.13528119324879617 -0.556347255927529 0.8198638481937659
vn 0 1 0
vn 0 -1 0
f 1//1 33//33 2//2
f 33//33 34//34 2//2
f 2//2 34//34 3//3
f 34//34 35//35 3//3
f 3//3 35//35 4//4
f 35//35 36//36 4//4
f 4//4 36//36 5//5
f 36//36 37//37 5//5
f 5//5 37//37 6//6
f 37//37 38//38 6//6
f 6//6 38//38 7//7
f 38//38 39//39 7//7
f 7//7 39//39 8//8
f 39//39 40//40 8//8
f 8//8 40//40 9//9
f 40//40 41//41 9//9
f 9//9 41//41 10//10
f 41//41 42//42 10//10
f 10//10 42//42 11//11
f 42//42 43//43 11//11
f 11//11 43//43 12//12
f 43//43 44//44 12//12
f 12//12 44//44 13//13
f 44//44 45//45 13//13
f 13//13 45//45 14//14
f 45//45 46//46 14//14
f 14//14 46//46 15//15
f 46//46 47//47 15//15
f 15//15 47//47 16//16
f 47//47 48//48 16//16
f 16//16 48//48 17//17
f 48//48 49//49 17//17
f 17//17 49//49 18//18
f 49//49 50//50 18//18
f 18//18 50//50 19//19
f 50//50 51//51 19//19
f 19//19 51//51 20//20
f 51//51 52//52 20//20
f 20//20 52//52 21//21
f 52//52 53//53 21//21
f 21//21 53//53 22//22
f 53//53 54//54 22//22
f 22//22 54//54 23//23
f 54//54 55//55 23//23
f 23//23 55//55 24//24
f 55//55 56//56 24//24
f 24//24 56//56 25//25
f 56//56 57//57 25//25
f 25//25 57//57 26//26
f 57//57 58//58 26//26
f 26//26 58//58 27//27
f 58//58 59//59 27//27
f 27//27 59//59 28//28
f 59//59 60//60 28//28
f 28//28 60//60 29//29
f 60//60 61//61 29//29
f 29//29 61//61 30//30
f 61//61 62//62 30//30
f 30//30 62//62 31//31
f 62//62 63//63 31//31
f 31//31 63//63 32//32
f 63//63 64//64 32//32
f 32//32 64//64 1//1
f 64//64 33//33 1//1
f 1//1 2//2 65//65
f 2//2 3//3 65//65
f 3//3 4//4 65//65
f 4//4 5//5 65//65
f 5//5 6//6 65//65
f 6//6 7//7 65//65
f 7//7 8//8 65//65
f 8//8 9//9 65//65
f 9//9 10//10 65//65
f 10//10 11//11 65//65
f 11//11 12//12 65//65
f 12//12 13//13 65//65
f 13//13 14//14 65//65
f 14//14 15//15 65//65
f 15//15 16//16 65//65
f 16//16 17//17 65//65
f 17//17 18//18 65//65
f 18//18 19//19 65//65
f 19//19 20//20 65//65
f 20//20 21//21 65//65
f 21//21 22//22 65//65
f 22//22 23//23 65//65
f 23//23 24//24 65//65
f 24//24 25//25 65//65
f 25//25 26//26 65//65
f 26//26 27//27 65//65
f 27//27 28//28 65//65
f 28//28 29//29 65//65
f 29//29 30//30 65//65
f 30//30 31//31 65//65
f 31//31 32//32 65//65
f 32//32 1//1 65//65
f 34//34 33//33 66//66
f 35//35 34//34 66//66
f 36//36 35//35 66//66
f 37//37 36//36 66//66
f 38//38 37//37 66//66
f 39//39 38//38 66//66
f 40//40 39//39 66//66
f 41//41 40//40 66//66
f 42//42 41//41 66//66
f 43//43 42//42 66//66
f 44//44 43//43 66//66
f 45//45 44//44 66//66
f 46//46 45//45 66//66
f 47//47 46//46 66//66
f 48//48 47//47 66//66
f 49//49 48//48 66//66
f 50//50 49//49 66//66
f 51//51 50//50 66//66
f 52//52 51//51 66//66
f 53//53 52//52 66//66
f 54//54 53//53 66//66
f 55//55 54//54 66//66
f 56//56 55//55 66//66
f 57//57 56//56 66//66
f 58//58 57//57 66//66
f 59//59 58//58 66//66
f 60//60 59//59 66//66
f 61//61 60//60 66//66
f 62//62 61//61 66//66
f 63//63 62//62 66//66
f 64//64 63//63 66//66
f 33//33 64//64 66//66
